<svg width="16" height="16" viewBox="0 0 24 24" fill="none" xmlns="http://www.w3.org/2000/svg">
<rect x="20.25" y="0.25" width="23.5" height="16.5" transform="rotate(90 20.25 0.25)" fill="white" stroke="#7C90AA" stroke-width="0.5"/>
<path d="M12.492 1.31445C12.2047 1.04773 11.7596 1.04799 11.4715 1.31543L7.01836 5.45116C6.51853 5.91528 6.84453 6.74996 7.52572 6.74998H9.73275L9.73308 6.999L9.73307 10.0019C9.73307 10.4154 10.0677 10.75 10.4811 10.75H13.4811C13.8961 10.75 14.2331 10.413 14.2331 9.99801L14.2331 7.00095L14.2327 6.74998L16.4329 6.74998C17.1147 6.74976 17.4447 5.91372 16.9461 5.45018L12.492 1.31445Z" fill="#FDF2CA" stroke="#AB7111" stroke-width="0.5"/>
<path d="M12.492 22.6855C12.2047 22.9523 11.7596 22.952 11.4715 22.6846L7.01836 18.5488C6.51853 18.0847 6.84453 17.25 7.52572 17.25H9.73275L9.73308 17.001L9.73307 13.9981C9.73307 13.5846 10.0677 13.25 10.4811 13.25H13.4811C13.8961 13.25 14.2331 13.587 14.2331 14.002L14.2331 16.999L14.2327 17.25H16.4329C17.1147 17.2502 17.4447 18.0863 16.9461 18.5498L12.492 22.6855Z" fill="#FDF2CA" stroke="#AB7111" stroke-width="0.5"/>
</svg>
