<svg width="16" height="16" viewBox="0 0 24 24" fill="none" xmlns="http://www.w3.org/2000/svg">
<g filter="url(#filter0_i_2038_81)">
<path d="M3.75 3.75H18.75V18.75H3.75V3.75Z" fill="white"/>
</g>
<path d="M18.75 1.25V3.75H3.75V18.75H1.25V1.25H18.75Z" fill="#9D9D9D"/>
<path d="M3.75 1.25L3.75 18.75M7.5 1.25V3.75M11.25 1.25V3.75M15 1.25V3.75M1.25 1.25L18.75 1.25V18.75H1.25V1.25Z" stroke="#626262" stroke-width="0.5"/>
<path d="M1.25 3.75H18.75" stroke="#626262" stroke-width="0.5"/>
<path d="M1.25 16.25H3.75" stroke="#626262" stroke-width="0.5"/>
<path d="M1.25 13.75H3.75" stroke="#626262" stroke-width="0.5"/>
<path d="M1.25 11.25H3.75" stroke="#626262" stroke-width="0.5"/>
<path d="M1.25 8.75H3.75" stroke="#626262" stroke-width="0.5"/>
<path d="M1.25 6.25H3.75" stroke="#626262" stroke-width="0.5"/>
<path d="M6.74265 20.8848L5.32843 19.4706L6.74265 15.2279L10.9853 19.4706L6.74265 20.8848Z" fill="#DFBF9F"/>
<path d="M5.57 21.2756C5.17912 21.4059 4.80725 21.0341 4.93754 20.6432L5.68198 18.4099C5.68198 18.4099 6.14593 19.2274 6.56586 19.6473C6.98579 20.0673 7.8033 20.5312 7.8033 20.5312L5.57 21.2756Z" fill="#333333"/>
<rect x="10.9853" y="19.4706" width="6" height="12" transform="rotate(-135 10.9853 19.4706)" fill="#DE9852"/>
<path d="M21.5919 8.86395L17.3492 4.62131L18.7635 3.2071C19.154 2.81657 19.7872 2.81657 20.1777 3.2071L23.0061 6.03553C23.3966 6.42605 23.3966 7.05921 23.0061 7.44974L21.5919 8.86395Z" fill="#E01B1B"/>
<rect x="19.4706" y="10.9853" width="6" height="3" transform="rotate(-135 19.4706 10.9853)" fill="#CFCFCF"/>
<path d="M9.57108 18.7634C9.13446 18.3268 9.3006 17.7858 8.86398 17.3492C8.42736 16.9126 7.88638 17.0787 7.44976 16.6421C7.01314 16.2055 7.17927 15.6645 6.74266 15.2279L8.86398 17.3492L10.9853 19.4705C10.5487 19.0339 10.0077 19.2001 9.57108 18.7634Z" fill="#DE9852"/>
<path d="M8.86405 20.1776L20.8849 8.15672L21.592 8.86383L10.9854 19.4704L8.86405 20.1776Z" fill="#333333" fill-opacity="0.15"/>
<path d="M6.74273 20.8847L20.1778 7.44961L20.8849 8.15672L8.86405 20.1776L6.74273 20.8847Z" fill="#333333" fill-opacity="0.1"/>
<path d="M6.03554 20.1777L19.4706 6.74263L20.1778 7.44961L6.74273 20.8847L6.03554 20.1777Z" fill="#333333" fill-opacity="0.05"/>
<defs>
<filter id="filter0_i_2038_81" x="3.75" y="3.75" width="15" height="19" filterUnits="userSpaceOnUse" color-interpolation-filters="sRGB">
<feFlood flood-opacity="0" result="BackgroundImageFix"/>
<feBlend mode="normal" in="SourceGraphic" in2="BackgroundImageFix" result="shape"/>
<feColorMatrix in="SourceAlpha" type="matrix" values="0 0 0 0 0 0 0 0 0 0 0 0 0 0 0 0 0 0 127 0" result="hardAlpha"/>
<feOffset dy="4"/>
<feGaussianBlur stdDeviation="4.5"/>
<feComposite in2="hardAlpha" operator="arithmetic" k2="-1" k3="1"/>
<feColorMatrix type="matrix" values="0 0 0 0 0 0 0 0 0 0 0 0 0 0 0 0 0 0 0.2 0"/>
<feBlend mode="normal" in2="shape" result="effect1_innerShadow_2038_81"/>
</filter>
</defs>
</svg>
