<!--
Copyright (c) 2025 Janis Reinsch and others.

This program and the accompanying materials are made
available under the terms of the Eclipse Public License 2.0
which is available at https://www.eclipse.org/legal/epl-2.0/

SPDX-License-Identifier: EPL-2.0

Contributors:
	Janis Reinsch <janisreinsch+github@gmail.com> - initial API and implementation
-->
<svg width="26" height="26" viewBox="0 0 26 26" fill="none" xmlns="http://www.w3.org/2000/svg">
<g filter="url(#filter0_i_2038_35)">
<path d="M3.75 3.75H18.75V18.75H3.75V3.75Z" fill="white"/>
</g>
<path d="M18.75 1.25V3.75H3.75V18.75H1.25V1.25H18.75Z" fill="#9D9D9D"/>
<path d="M3.75 1.25L3.75 18.75M7.5 1.25V3.75M11.25 1.25V3.75M15 1.25V3.75M1.25 1.25L18.75 1.25V18.75H1.25V1.25Z" stroke="#626262" stroke-width="0.5"/>
<path d="M1.25 3.75H18.75" stroke="#626262" stroke-width="0.5"/>
<path d="M1.25 16.25H3.75" stroke="#626262" stroke-width="0.5"/>
<path d="M1.25 13.75H3.75" stroke="#626262" stroke-width="0.5"/>
<path d="M1.25 11.25H3.75" stroke="#626262" stroke-width="0.5"/>
<path d="M1.25 8.75H3.75" stroke="#626262" stroke-width="0.5"/>
<path d="M1.25 6.25H3.75" stroke="#626262" stroke-width="0.5"/>
<path d="M16 8.5C16.1822 8.50001 16.363 8.5065 16.542 8.51953C16.9548 8.54962 17.2794 8.86812 17.3633 9.27344L17.5381 10.1221C17.681 10.8139 18.4772 11.1439 19.0674 10.7559L19.79 10.2803C20.1357 10.0528 20.5902 10.0566 20.9033 10.3271C21.1776 10.5643 21.4345 10.8216 21.6719 11.0957C21.9427 11.4086 21.9472 11.8632 21.7197 12.209L21.2441 12.9316C20.8558 13.522 21.1859 14.3182 21.8779 14.4609L22.7246 14.6357C23.1301 14.7194 23.449 15.0441 23.4795 15.457C23.4927 15.6363 23.5 15.8174 23.5 16C23.5 16.1823 23.4927 16.363 23.4795 16.542C23.449 16.9549 23.13 17.2795 22.7246 17.3633L21.877 17.5391C21.1854 17.6822 20.8562 18.4773 21.2441 19.0674L21.7197 19.79C21.9472 20.1358 21.9427 20.5904 21.6719 20.9033C21.4345 21.1775 21.1777 21.4347 20.9033 21.6719C20.5904 21.9424 20.1357 21.9469 19.79 21.7197L19.0674 21.2441C18.4772 20.856 17.6811 21.1853 17.5381 21.877L17.3633 22.7256C17.2794 23.1309 16.9548 23.449 16.542 23.4795C16.363 23.4927 16.1823 23.5 16 23.5C15.8172 23.5 15.6355 23.493 15.4561 23.4795C15.0433 23.4484 14.7185 23.13 14.6348 22.7246L14.46 21.877C14.3169 21.1854 13.5218 20.8562 12.9316 21.2441L12.208 21.7197C11.8623 21.9467 11.4075 21.9425 11.0947 21.6719C10.8207 21.4347 10.5643 21.1774 10.3271 20.9033C10.0565 20.5903 10.0518 20.1357 10.2793 19.79L10.7549 19.0684C11.1432 18.4782 10.8139 17.6821 10.1221 17.5391L9.27344 17.3633C8.86796 17.2795 8.54958 16.9549 8.51953 16.542C8.50651 16.363 8.5 16.1823 8.5 16C8.5 15.8174 8.5065 15.6363 8.51953 15.457C8.54955 15.0441 8.86792 14.7194 9.27344 14.6357L10.1221 14.4609C10.8138 14.318 11.1431 13.5219 10.7549 12.9316L10.2793 12.209C10.0519 11.8633 10.0565 11.4087 10.3271 11.0957C10.5642 10.8218 10.8209 10.5652 11.0947 10.3281C11.4077 10.0573 11.8622 10.0529 12.208 10.2803L12.9316 10.7559C13.5219 11.1438 14.3172 10.8139 14.46 10.1221L14.6348 9.27344C14.7185 8.86817 15.0434 8.54971 15.4561 8.51953C15.6354 8.5065 15.8173 8.50001 16 8.5ZM16 13.5C14.6193 13.5 13.5 14.6193 13.5 16C13.5 17.3807 14.6193 18.5 16 18.5C17.3807 18.5 18.5 17.3807 18.5 16C18.5 14.6193 17.3807 13.5 16 13.5Z" fill="#333333"/>
<defs>
<filter id="filter0_i_2038_35" x="3.75" y="3.75" width="15" height="19" filterUnits="userSpaceOnUse" color-interpolation-filters="sRGB">
<feFlood flood-opacity="0" result="BackgroundImageFix"/>
<feBlend mode="normal" in="SourceGraphic" in2="BackgroundImageFix" result="shape"/>
<feColorMatrix in="SourceAlpha" type="matrix" values="0 0 0 0 0 0 0 0 0 0 0 0 0 0 0 0 0 0 127 0" result="hardAlpha"/>
<feOffset dy="4"/>
<feGaussianBlur stdDeviation="4.5"/>
<feComposite in2="hardAlpha" operator="arithmetic" k2="-1" k3="1"/>
<feColorMatrix type="matrix" values="0 0 0 0 0 0 0 0 0 0 0 0 0 0 0 0 0 0 0.2 0"/>
<feBlend mode="normal" in2="shape" result="effect1_innerShadow_2038_35"/>
</filter>
</defs>
</svg>
