<svg width="16" height="16" viewBox="0 0 24 24" fill="none" xmlns="http://www.w3.org/2000/svg">
<path d="M9.25 12.8906L9.16992 12.8164L3.31348 7.41016C2.95458 7.07887 2.75 6.61245 2.75 6.12402V4.75H21.25V6.12402C21.25 6.61245 21.0454 7.07887 20.6865 7.41016L14.8301 12.8164L14.75 12.8906V19.833L9.25 22.125V12.8906Z" fill="#CFCFCF" stroke="#626262" stroke-width="0.5"/>
<path d="M12 3C13.1819 3 14.3524 3.23325 15.4443 3.68555C16.2266 4.00962 16.9571 4.44255 17.6162 4.96875L17.6572 4.92871L19.0713 6.34277L19.0303 6.38281C19.5569 7.04224 19.9902 7.77295 20.3145 8.55566C20.7667 9.64759 21 10.8181 21 12C21 13.1819 20.7667 14.3524 20.3145 15.4443C19.8622 16.5361 19.1999 17.5286 18.3643 18.3643C17.5286 19.1999 16.5361 19.8622 15.4443 20.3145C14.3524 20.7667 13.1819 21 12 21C10.8181 21 9.64759 20.7667 8.55566 20.3145C7.77295 19.9902 7.04224 19.5569 6.38281 19.0303L6.34277 19.0713L4.92871 17.6572L4.96875 17.6162C4.44255 16.9571 4.00962 16.2266 3.68555 15.4443C3.23325 14.3524 3 13.1819 3 12C3 10.8181 3.23325 9.64759 3.68555 8.55566C4.13784 7.46386 4.8001 6.47139 5.63574 5.63574C6.47139 4.8001 7.46386 4.13784 8.55566 3.68555C9.64759 3.23325 10.8181 3 12 3ZM7.80762 17.6055C8.2733 17.9538 8.78164 18.2433 9.32129 18.4668C10.1706 18.8186 11.0807 19 12 19C12.9193 19 13.8294 18.8186 14.6787 18.4668C15.528 18.115 16.3002 17.6002 16.9502 16.9502C17.6002 16.3002 18.115 15.528 18.4668 14.6787C18.8186 13.8294 19 12.9193 19 12C19 11.0807 18.8186 10.1706 18.4668 9.32129C18.2433 8.78164 17.9538 8.2733 17.6055 7.80762L7.80762 17.6055ZM12 5C11.0807 5 10.1706 5.18142 9.32129 5.5332C8.47204 5.88499 7.6998 6.39981 7.0498 7.0498C6.39981 7.6998 5.88499 8.47204 5.5332 9.32129C5.18142 10.1706 5 11.0807 5 12C5 12.9193 5.18142 13.8294 5.5332 14.6787C5.75657 15.2179 6.04563 15.726 6.39355 16.1914L11.293 11.293L16.1914 6.39355C15.726 6.04563 15.2179 5.75657 14.6787 5.5332C13.8294 5.18142 12.9193 5 12 5Z" fill="#E01B1B"/>
</svg>
