<svg width="16" height="16" viewBox="0 0 24 24" fill="none" xmlns="http://www.w3.org/2000/svg">
<rect x="9.75" y="1.25" width="21.5" height="8.5" transform="rotate(90 9.75 1.25)" fill="white" stroke="#717171" stroke-width="0.5"/>
<rect x="1.25" y="1.25" width="8.5" height="3.5" fill="#9D9D9D" stroke="#717171" stroke-width="0.5"/>
<path d="M18.5 1.25H19.5C19.9142 1.25 20.25 1.58579 20.25 2V3.75H22C22.4142 3.75 22.75 4.08579 22.75 4.5V5.5C22.75 5.91421 22.4142 6.25 22 6.25H20.25V8C20.25 8.41421 19.9142 8.75 19.5 8.75H18.5C18.0858 8.75 17.75 8.41421 17.75 8V6.25H16C15.5858 6.25 15.25 5.91421 15.25 5.5V4.5C15.25 4.08579 15.5858 3.75 16 3.75H17.75V2C17.75 1.58579 18.0858 1.25 18.5 1.25Z" fill="#FDF2CA" stroke="#AB7111" stroke-width="0.5"/>
</svg>
